<mxfile host="app.diagrams.net" modified="2020-10-01T14:26:04.785Z" agent="5.0 (Windows NT 10.0; Win64; x64) AppleWebKit/537.36 (KHTML, like Gecko) Chrome/85.0.4183.121 Safari/537.36" etag="CFOeLdyoHP-0BxaEP8aw" version="13.7.7" type="github">
  <diagram id="vXZSRSMh0j3vokDVaoxd" name="Page-1">
    <mxGraphModel dx="1179" dy="808" grid="1" gridSize="10" guides="1" tooltips="1" connect="1" arrows="1" fold="1" page="1" pageScale="1" pageWidth="850" pageHeight="1100" math="0" shadow="0">
      <root>
        <mxCell id="0" />
        <mxCell id="1" parent="0" />
        <mxCell id="5j41DObqsLdt-A27YzM4-8" value="" style="edgeStyle=orthogonalEdgeStyle;rounded=0;orthogonalLoop=1;jettySize=auto;html=1;" edge="1" parent="1" source="5j41DObqsLdt-A27YzM4-6" target="5j41DObqsLdt-A27YzM4-7">
          <mxGeometry relative="1" as="geometry" />
        </mxCell>
        <mxCell id="5j41DObqsLdt-A27YzM4-6" value="&lt;p style=&quot;font-family: &amp;#34;jetbrains mono&amp;#34; , monospace&quot;&gt;&lt;span style=&quot;color: rgb(36 , 41 , 46) ; font-family: , &amp;#34;blinkmacsystemfont&amp;#34; , &amp;#34;segoe ui&amp;#34; , &amp;#34;helvetica&amp;#34; , &amp;#34;arial&amp;#34; , sans-serif , &amp;#34;apple color emoji&amp;#34; , &amp;#34;segoe ui emoji&amp;#34; ; font-size: 16px ; background-color: rgb(255 , 255 , 255)&quot;&gt;ZoneInfoCompiler.formatName&lt;br&gt;&lt;/span&gt;nameFormat&lt;br&gt;saveMillis&lt;br&gt;letterS&lt;/p&gt;" style="rounded=0;whiteSpace=wrap;html=1;" vertex="1" parent="1">
          <mxGeometry x="380" y="30" width="120" height="60" as="geometry" />
        </mxCell>
        <mxCell id="5j41DObqsLdt-A27YzM4-10" value="" style="edgeStyle=orthogonalEdgeStyle;rounded=0;orthogonalLoop=1;jettySize=auto;html=1;" edge="1" parent="1" source="5j41DObqsLdt-A27YzM4-7" target="5j41DObqsLdt-A27YzM4-9">
          <mxGeometry relative="1" as="geometry" />
        </mxCell>
        <mxCell id="5j41DObqsLdt-A27YzM4-14" value="" style="edgeStyle=orthogonalEdgeStyle;rounded=0;orthogonalLoop=1;jettySize=auto;html=1;" edge="1" parent="1" source="5j41DObqsLdt-A27YzM4-7" target="5j41DObqsLdt-A27YzM4-13">
          <mxGeometry relative="1" as="geometry" />
        </mxCell>
        <mxCell id="5j41DObqsLdt-A27YzM4-7" value="If statement" style="whiteSpace=wrap;html=1;rounded=0;" vertex="1" parent="1">
          <mxGeometry x="380" y="170" width="120" height="60" as="geometry" />
        </mxCell>
        <mxCell id="5j41DObqsLdt-A27YzM4-20" value="" style="edgeStyle=orthogonalEdgeStyle;rounded=0;orthogonalLoop=1;jettySize=auto;html=1;" edge="1" parent="1" source="5j41DObqsLdt-A27YzM4-9" target="5j41DObqsLdt-A27YzM4-19">
          <mxGeometry relative="1" as="geometry" />
        </mxCell>
        <mxCell id="5j41DObqsLdt-A27YzM4-22" value="" style="edgeStyle=orthogonalEdgeStyle;rounded=0;orthogonalLoop=1;jettySize=auto;html=1;" edge="1" parent="1" source="5j41DObqsLdt-A27YzM4-9" target="5j41DObqsLdt-A27YzM4-21">
          <mxGeometry relative="1" as="geometry" />
        </mxCell>
        <mxCell id="5j41DObqsLdt-A27YzM4-9" value="If statement" style="whiteSpace=wrap;html=1;rounded=0;" vertex="1" parent="1">
          <mxGeometry x="380" y="450" width="120" height="60" as="geometry" />
        </mxCell>
        <mxCell id="5j41DObqsLdt-A27YzM4-11" value="False" style="text;html=1;strokeColor=none;fillColor=none;align=center;verticalAlign=middle;whiteSpace=wrap;rounded=0;" vertex="1" parent="1">
          <mxGeometry x="550" y="100" width="40" height="20" as="geometry" />
        </mxCell>
        <mxCell id="5j41DObqsLdt-A27YzM4-12" value="True" style="text;html=1;strokeColor=none;fillColor=none;align=center;verticalAlign=middle;whiteSpace=wrap;rounded=0;" vertex="1" parent="1">
          <mxGeometry x="300" y="100" width="40" height="20" as="geometry" />
        </mxCell>
        <mxCell id="5j41DObqsLdt-A27YzM4-16" value="" style="edgeStyle=orthogonalEdgeStyle;rounded=0;orthogonalLoop=1;jettySize=auto;html=1;" edge="1" parent="1" source="5j41DObqsLdt-A27YzM4-13" target="5j41DObqsLdt-A27YzM4-15">
          <mxGeometry relative="1" as="geometry" />
        </mxCell>
        <mxCell id="5j41DObqsLdt-A27YzM4-18" value="" style="edgeStyle=orthogonalEdgeStyle;rounded=0;orthogonalLoop=1;jettySize=auto;html=1;" edge="1" parent="1" source="5j41DObqsLdt-A27YzM4-13" target="5j41DObqsLdt-A27YzM4-17">
          <mxGeometry relative="1" as="geometry" />
        </mxCell>
        <mxCell id="5j41DObqsLdt-A27YzM4-13" value="If statement" style="whiteSpace=wrap;html=1;rounded=0;" vertex="1" parent="1">
          <mxGeometry x="220" y="280" width="120" height="60" as="geometry" />
        </mxCell>
        <mxCell id="5j41DObqsLdt-A27YzM4-15" value="Return" style="whiteSpace=wrap;html=1;rounded=0;" vertex="1" parent="1">
          <mxGeometry x="80" y="350" width="120" height="60" as="geometry" />
        </mxCell>
        <mxCell id="5j41DObqsLdt-A27YzM4-17" value="Return" style="whiteSpace=wrap;html=1;rounded=0;" vertex="1" parent="1">
          <mxGeometry x="345" y="350" width="120" height="60" as="geometry" />
        </mxCell>
        <mxCell id="5j41DObqsLdt-A27YzM4-19" value="Return" style="whiteSpace=wrap;html=1;rounded=0;" vertex="1" parent="1">
          <mxGeometry x="180" y="450" width="120" height="60" as="geometry" />
        </mxCell>
        <mxCell id="5j41DObqsLdt-A27YzM4-24" value="" style="edgeStyle=orthogonalEdgeStyle;rounded=0;orthogonalLoop=1;jettySize=auto;html=1;" edge="1" parent="1" source="5j41DObqsLdt-A27YzM4-21" target="5j41DObqsLdt-A27YzM4-23">
          <mxGeometry relative="1" as="geometry" />
        </mxCell>
        <mxCell id="5j41DObqsLdt-A27YzM4-26" value="" style="edgeStyle=orthogonalEdgeStyle;rounded=0;orthogonalLoop=1;jettySize=auto;html=1;" edge="1" parent="1" source="5j41DObqsLdt-A27YzM4-21" target="5j41DObqsLdt-A27YzM4-25">
          <mxGeometry relative="1" as="geometry" />
        </mxCell>
        <mxCell id="5j41DObqsLdt-A27YzM4-21" value="If statement" style="whiteSpace=wrap;html=1;rounded=0;" vertex="1" parent="1">
          <mxGeometry x="530" y="520" width="120" height="60" as="geometry" />
        </mxCell>
        <mxCell id="5j41DObqsLdt-A27YzM4-23" value="Modify name" style="whiteSpace=wrap;html=1;rounded=0;" vertex="1" parent="1">
          <mxGeometry x="390" y="590" width="120" height="60" as="geometry" />
        </mxCell>
        <mxCell id="5j41DObqsLdt-A27YzM4-25" value="Modify name" style="whiteSpace=wrap;html=1;rounded=0;" vertex="1" parent="1">
          <mxGeometry x="660" y="590" width="120" height="60" as="geometry" />
        </mxCell>
      </root>
    </mxGraphModel>
  </diagram>
</mxfile>
